<?xml version="1.0" encoding="UTF-8" standalone="yes"?>
<svg xmlns="http://www.w3.org/2000/svg" viewBox="0 0 24 24" width="96" height="96" fill="#000000">
  <path d="M 18.59375 3 L 12.25 9.34375 C 12.273438 10.203125 12.378906 11.121094 13 11.4375 L 19.40625 5 L 22 5 L 22 3 Z M 10.0625 7.21875 C 9.898438 7.203125 9.730469 7.238281 9.5625 7.3125 C 8.425781 7.828125 7.578125 8.914063 7.5625 10.1875 C 7.554688 10.796875 7.105469 11.3125 6.5 11.3125 C 4.355469 11.3125 1.183594 13.441406 2.21875 16.6875 C 2.566406 17.777344 4.597656 21 7.5625 21 C 9.933594 21 11.875 19.070313 11.875 16.6875 C 11.875 16.089844 12.308594 15.621094 12.90625 15.625 C 13.875 15.632813 14.695313 14.976563 14.96875 14.09375 C 15.066406 13.78125 14.828125 13.457031 14.5 13.4375 C 13.09375 13.355469 12.34375 12.964844 11.875 12.375 C 11.148438 11.464844 11.015625 10.363281 11 8.21875 C 10.996094 7.671875 10.558594 7.261719 10.0625 7.21875 Z M 9 12 L 11 14 L 10 15 L 8 13 Z M 7 14 L 9 16 L 8 17 L 6 15 Z"/>
</svg>
